#!OML:ASF F:\VICON\USERDATA\Patient Classification 1\PLAYGROUND\JustinFriday\JustinFriday.ASF
:FULLY-SPECIFIED
:DEGREES
4331
root 13.5971 27.2531 46.7361 5.00958 -178.174 6.17331
lowerback 18.8153 -4.28746 4.5738
upperback 10.1643 -6.95648 -1.54299
thorax -0.170911 -4.08422 -2.88704
lowerneck -1.00829 -5.4276 -21.0589
upperneck -4.31289 -6.77261 17.0238
head 0.274358 -3.21363 8.62859
rclavicle 1.74931e-014 3.97569e-014
rhumerus 91.7556 10.7251 -87.273
rradius 93.1055
rwrist 14.1832
rhand -32.167 352.82
rfingers 7.12502
rthumb -5.41 -37.0911
lclavicle 1.74931e-014 3.97569e-014
lhumerus 92.9271 18.8513 61.662
lradius 81.7128
lwrist -33
lhand -3.3152 -6.40162
lfingers 7.12502
lthumb 22.4114 22.3182
rfemur -17.7821 2.20437 29.9908
rtibia 28.7101
rfoot -25.2261 -8.93345
rtoes 31.2081
lfemur -18.5657 5.7161 -11.7358
ltibia 31.8489
lfoot -29.0892 2.12882
ltoes -5.82057
4332
root 13.5999 27.2489 46.7816 5.04635 -178.084 6.42352
lowerback 18.4148 -4.33602 4.88298
upperback 10.1968 -6.97615 -1.48688
thorax 0.0451928 -4.073 -3.03583
lowerneck -1.45709 -5.52657 -21.033
upperneck -4.14683 -6.82508 17.145
head 0.412304 -3.22247 8.64569
rclavicle -2.22639e-014 -1.59028e-015
rhumerus 91.6191 10.8776 -87.3746
rradius 92.4293
rwrist 14.4061
rhand -32.2039 352.943
rfingers 7.12502
rthumb -5.44557 -36.967
lclavicle -2.22639e-014 -1.59028e-015
lhumerus 92.7648 18.9844 61.2701
lradius 80.2439
lwrist -34.0436
lhand -5.68377 -7.28733
lfingers 7.12502
lthumb 20.1363 21.6891
rfemur -17.9985 2.2027 30.2801
rtibia 28.7042
rfoot -25.472 -8.92219
rtoes 30.7144
lfemur -18.807 5.71128 -11.4524
ltibia 31.8501
lfoot -29.2067 1.9394
ltoes -5.84531
4333
root 13.608 27.2421 46.8317 5.0327 -178.301 6.76283
lowerback 18.1691 -4.25733 5.08967
upperback 10.2343 -6.85493 -1.41264
thorax 0.213012 -4.00286 -3.12308
lowerneck -1.73881 -5.66277 -20.9189
upperneck -4.22887 -6.93803 17.3159
head 0.463232 -3.2626 8.67046
rclavicle -5.08889e-014 3.33958e-014
rhumerus 91.5676 11.0875 -87.5386
rradius 91.6184
rwrist 14.8043
rhand -32.3088 353.181
rfingers 7.12502
rthumb -5.5469 -36.7266
lclavicle -5.08889e-014 3.33958e-014
lhumerus 92.69 19.0769 61.1067
lradius 78.8837
lwrist -35.0876
lhand -7.78291 -7.76485
lfingers 7.12502
lthumb 18.1177 21.4113
rfemur -18.1203 2.32238 30.6687
rtibia 28.611
rfoot -25.6324 -8.90088
rtoes 30.0164
lfemur -18.9842 6.01352 -11.0673
ltibia 31.9539
lfoot -29.331 2.02248
ltoes -6.91298
4334
root 13.5961 27.2406 46.8779 5.10626 -177.225 6.72315
lowerback 17.6876 -4.72703 5.66176
upperback 10.2319 -7.36785 -1.42826
thorax 0.353465 -4.21327 -3.39942
lowerneck -2.0518 -5.7453 -20.8712
upperneck -4.23147 -6.97939 17.4765
head 0.529886 -3.26679 8.70464
rclavicle 1.90833e-014 -1.59028e-015
rhumerus 91.3942 11.3242 -87.748
rradius 91.0674
rwrist 15.1094
rhand -32.2424 353.173
rfingers 7.12502
rthumb -5.48279 -36.7359
lclavicle 1.90833e-014 -1.59028e-015
lhumerus 92.6645 19.1019 61.1745
lradius 77.6839
lwrist -35.6724
lhand -9.15416 -8.23555
lfingers 7.12502
lthumb 16.798 21.0578
rfemur -18.4458 1.7458 30.6277
rtibia 28.6132
rfoot -25.6966 -9.28861
rtoes 30.0119
lfemur -19.5125 5.30613 -11.1313
ltibia 31.9314
lfoot -29.1516 1.82648
ltoes -8.08631
4335
root 13.5867 27.2315 46.9211 5.25384 -176.613 7.20867
lowerback 17.1369 -5.00476 6.55142
upperback 10.1864 -7.58755 -1.28999
thorax 0.497542 -4.26744 -3.75282
lowerneck -2.37589 -5.90702 -20.8461
upperneck -4.08483 -7.14613 17.5997
head 0.6641 -3.33677 8.71943
rclavicle -1.38354e-013 -3.33958e-014
rhumerus 91.3028 11.3665 -87.7576
rradius 90.3046
rwrist 15.1801
rhand -32.2913 353.015
rfingers 7.12502
rthumb -5.53 -36.8927
lclavicle -1.38354e-013 -3.33958e-014
lhumerus 92.5912 19.0425 61.4023
lradius 76.8594
lwrist -35.4091
lhand -9.52647 -8.4492
lfingers 7.12502
lthumb 16.4396 20.8742
rfemur -18.9318 1.31219 31.1501
rtibia 28.5572
rfoot -25.8237 -9.25456
rtoes 29.4556
lfemur -20.1686 4.82294 -10.6204
ltibia 31.9869
lfoot -28.8302 1.56631
ltoes -7.74012
4336
root 13.6012 27.2317 47.0097 4.95545 -176.283 6.33451
lowerback 18.0093 -5.00404 5.56993
upperback 10.0566 -7.67195 -1.39324
thorax -0.0186046 -4.36295 -3.20279
lowerneck -2.61839 -6.1528 -20.7032
upperneck -3.9982 -7.44354 17.5761
head 0.780895 -3.4749 8.65935
rclavicle 1.19271e-014 -1.74931e-014
rhumerus 91.1631 11.3605 -87.7276
rradius 89.5086
rwrist 15.475
rhand -32.4927 353.053
rfingers 7.12502
rthumb -5.72443 -36.85
lclavicle 1.19271e-014 -1.74931e-014
lhumerus 92.485 18.8999 61.6428
lradius 76.25
lwrist -34.4803
lhand -9.41088 -8.38541
lfingers 7.12502
lthumb 16.5509 20.9288
rfemur -18.794 1.38416 30.2036
rtibia 28.5659
rfoot -26.1825 -9.619
rtoes 28.8014
lfemur -20.0527 4.42606 -11.5487
ltibia 31.9622
lfoot -28.8472 1.33831
ltoes -7.07357
4337
root 13.6129 27.2124 47.0277 4.44916 -177.26 7.0377
lowerback 17.9673 -4.61589 5.90115
upperback 10.2341 -7.1855 -1.27381
thorax 0.231465 -4.12922 -3.37858
lowerneck -2.91885 -6.28828 -20.5433
upperneck -3.94596 -7.5733 17.4919
head 0.860595 -3.5254 8.58535
rclavicle 3.57812e-014 6.20208e-014
rhumerus 91.0357 11.4301 -87.7675
rradius 88.6778
rwrist 15.8674
rhand -32.5632 353.071
rfingers 7.12502
rthumb -5.79251 -36.8302
lclavicle 3.57812e-014 6.20208e-014
lhumerus 92.375 18.7995 61.759
lradius 75.6038
lwrist -33.312
lhand -9.38399 -8.15137
lfingers 7.12502
lthumb 16.5768 21.1606
rfemur -18.2618 2.07325 30.9927
rtibia 28.452
rfoot -25.9193 -9.30308
rtoes 28.9728
lfemur -19.4946 5.2979 -10.716
ltibia 32.1174
lfoot -29.2676 1.55486
ltoes -7.80539
4338
root 13.6137 27.1972 47.0685 4.40148 -177.064 7.39487
lowerback 17.6734 -4.69155 6.3727
upperback 10.2268 -7.21384 -1.16419
thorax 0.342983 -4.11731 -3.5463
lowerneck -3.19757 -6.41502 -20.4543
upperneck -3.92889 -7.68943 17.6253
head 0.938794 -3.56815 8.59809
rclavicle 2.8625e-014 4.77083e-014
rhumerus 90.9443 11.5282 -87.8354
rradius 87.993
rwrist 16.1669
rhand -32.0401 352.622
rfingers 7.12502
rthumb -5.28741 -37.2925
lclavicle 2.8625e-014 4.77083e-014
lhumerus 92.2674 18.6503 61.8714
lradius 74.9799
lwrist -32.1844
lhand -9.41874 -7.80009
lfingers 7.12502
lthumb 16.5433 21.5147
rfemur -18.3446 1.99082 31.405
rtibia 28.314
rfoot -25.7645 -9.39877
rtoes 29.0328
lfemur -19.7991 5.44983 -10.339
ltibia 32.2855
lfoot -29.2985 1.68837
ltoes -8.69434
4339
root 13.6175 27.1848 47.1291 4.63512 -176.373 7.86495
lowerback 17.4592 -4.93288 6.98083
upperback 10.0537 -7.38215 -0.925453
thorax 0.221173 -4.16447 -3.60392
lowerneck -3.54464 -6.63239 -20.4407
upperneck -3.82502 -7.92485 17.9516
head 1.09048 -3.66703 8.67554
rclavicle -5.96354e-014 -3.02153e-014
rhumerus 90.8519 11.5698 -87.8293
rradius 87.4412
rwrist 16.4018
rhand -31.348 351.936
rfingers 7.12502
rthumb -4.61913 -37.9937
lclavicle -5.96354e-014 -3.02153e-014
lhumerus 92.1597 18.411 62.0076
lradius 74.3792
lwrist -31.3755
lhand -9.34026 -7.40792
lfingers 7.12502
lthumb 16.6189 21.9006
rfemur -18.8292 1.80381 31.9524
rtibia 28.1349
rfoot -25.8649 -9.9013
rtoes 28.412
lfemur -20.6723 5.33367 -9.83454
ltibia 32.4967
lfoot -29.0937 1.40856
ltoes -8.5486
4340
root 13.6229 27.1787 47.1804 4.76309 -176.112 8.27684
lowerback 17.2335 -5.04222 7.45055
upperback 9.98079 -7.44053 -0.780004
thorax 0.227294 -4.16826 -3.71458
lowerneck -3.81476 -6.80629 -20.5094
upperneck -3.93276 -8.08719 18.4002
head 1.16671 -3.72514 8.81877
rclavicle -2.78299e-014 3.33958e-014
rhumerus 90.863 11.6617 -87.8652
rradius 86.7541
rwrist 16.452
rhand -31.1263 351.644
rfingers 7.12502
rthumb -4.40507 -38.2901
lclavicle -2.78299e-014 3.33958e-014
lhumerus 92.0366 18.2455 62.0549
lradius 73.7487
lwrist -30.9666
lhand -9.40462 -7.05749
lfingers 7.12502
lthumb 16.5569 22.2562
rfemur -19.1817 1.77991 32.4015
rtibia 28.1009
rfoot -26.115 -10.0186
rtoes 27.7736
lfemur -21.1775 5.12747 -9.34268
ltibia 32.5849
lfoot -29.0158 0.839576
ltoes -7.17357
